<?xml version="1.0" encoding="UTF-8"?>
<svg width="500px" height="152px" viewBox="0 0 500 152" version="1.1" xmlns="http://www.w3.org/2000/svg" xmlns:xlink="http://www.w3.org/1999/xlink">
    <title>postman</title>
    <g id="Page-1" stroke="none" stroke-width="1" fill="none" fill-rule="evenodd">
        <g id="postman" fill-rule="nonzero">
            <path d="M287.049394,51.748661 C289.691348,51.7030242 292.287752,52.113755 294.793053,52.8895797 C297.252803,53.7110412 298.528229,54.8063232 298.528229,56.129789 C298.482678,56.8143402 298.209373,57.4988915 297.844965,58.0921692 C297.526109,58.7310837 296.888396,59.1418144 296.159581,59.1418144 C295.15746,58.8223572 294.200891,58.4116264 293.244321,57.9552589 C291.331182,57.0881607 289.235839,56.67743 287.140496,56.7230667 C284.954052,56.5861565 282.722056,57.1337975 280.808917,58.2747162 C279.123532,59.4156349 278.166963,61.3780152 278.349166,63.4316689 C278.212514,65.3027757 278.98688,67.1738824 280.444509,68.3604379 C282.038792,69.6839037 283.90638,70.6879122 285.86507,71.3268267 C287.960413,72.1026514 290.055756,72.9697497 292.19665,73.9281214 C297.070599,76.2099589 300.03141,81.2300014 299.758104,86.6151379 C300.03141,90.4029882 298.619331,94.1452017 295.840724,96.7921332 C292.925465,99.1652442 289.235839,100.397436 285.455112,100.214889 C281.993241,100.3518 278.576921,99.4847014 275.616111,97.7505049 C272.746402,96.1532187 271.379874,94.5102957 271.379874,92.9586462 C271.425425,92.1828214 271.69873,91.4982702 272.15424,90.9049924 C272.473096,90.3573514 273.065258,89.9922574 273.702971,89.9466207 C274.249583,90.0378942 274.796194,90.3573514 275.206152,90.7680822 L275.206152,90.7680822 L277.255944,92.7304624 C278.166963,93.5519239 279.214634,94.1908384 280.353407,94.5559324 C281.856588,95.1492102 283.450871,95.4230307 285.090704,95.3773939 C287.504904,95.5143042 289.873552,94.8297529 291.786691,93.3237402 C293.472076,91.7720907 294.383094,89.5358899 294.200891,87.2540524 C294.291993,85.1091252 293.517627,83.0098347 292.014446,81.4125484 C290.511265,79.9065357 288.643677,78.7199802 286.639436,77.9897922 C284.544093,77.2139674 282.44875,76.3925059 280.307857,75.4797709 C278.166963,74.5213992 276.299375,73.0610232 274.887296,71.2355532 C273.384115,69.1818994 272.609749,66.6262414 272.700851,64.0705834 C272.6553,61.9712929 273.110809,59.9176392 274.021828,58.0465324 C274.796194,56.4492462 275.980518,55.1257805 277.483699,54.2130455 C278.895778,53.3459472 280.444509,52.7526695 282.038792,52.3419387 C283.678625,51.931208 285.36401,51.748661 287.049394,51.748661 Z M227.742081,55.1257805 C233.800355,50.5164687 242.181727,50.5164687 248.240001,55.0801437 C251.109709,58.0008957 252.521788,62.0169297 252.11183,66.0786004 L252.11183,66.0786004 L252.11183,85.6111294 C252.476237,89.6271634 251.064158,93.5975607 248.240001,96.4726759 C242.181727,101.081988 233.800355,101.081988 227.742081,96.4726759 C224.963475,93.5519239 223.551396,89.6271634 223.915803,85.6111294 L223.915803,85.6111294 L223.915803,65.9416902 C223.596947,61.9712929 224.963475,58.0008957 227.742081,55.1257805 Z M435.63563,51.9320708 L440.48563,65.1540708 L452.262624,97.5679579 C452.262624,98.1998514 451.91331,98.7539734 451.357991,99.0508511 L451.214952,99.1196074 C450.531688,99.5759749 449.666221,99.8041587 448.846304,99.7585219 C447.980836,99.8954322 447.115368,99.3477912 446.842063,98.5263297 L446.842063,98.5263297 L444.017905,88.9882489 L427.072958,88.9882489 L424.248801,98.5263297 C423.975495,99.3934279 423.110027,99.9410689 422.24456,99.8041587 C421.470194,99.8041587 420.695828,99.5759749 420.012564,99.1652442 C419.374851,98.8457869 418.964893,98.1612357 418.964893,97.4310477 C418.919342,97.2485007 418.919342,97.1115904 418.964893,96.9290434 L418.964893,96.9290434 L432.356866,53.8023147 C432.721274,52.5701225 433.814496,51.931208 435.682084,51.931208 L435.63563,51.9320708 Z M495.353805,52.3419387 C496.58368,51.6573875 498.04131,51.6573875 499.225634,52.3419387 C499.726694,52.661396 500,53.1634002 500,53.756678 L500,53.756678 L500,97.7505049 C500,98.3437827 499.681143,98.8914237 499.180083,99.2108809 C498.587921,99.5759749 497.904657,99.7585219 497.221393,99.7585219 C495.718212,99.6672484 494.351684,98.7088767 493.805073,97.2485007 L493.805073,97.2485007 L476.860127,64.3444039 L476.860127,97.6135947 C476.860127,98.2068724 476.54127,98.8001502 476.04021,99.0739707 C474.855886,99.8041587 473.352705,99.8041587 472.168381,99.0739707 C471.62177,98.7545134 471.302913,98.2068724 471.348464,97.6135947 L471.348464,97.6135947 L471.348464,53.8023147 C471.348464,52.5244857 472.213932,51.8855712 474.08152,51.8855712 C474.946988,51.8855712 475.766904,52.1593917 476.404617,52.7070327 C477.178983,53.4828575 477.816696,54.3955925 478.226655,55.399601 L478.226655,55.399601 L494.488337,87.2996892 L494.488337,53.756678 C494.533888,53.1634002 494.852745,52.6157592 495.353805,52.3419387 Z M190.936929,51.8855712 C194.581003,51.6573875 198.179527,52.843943 201.049235,55.217054 C203.691189,58.0921692 205.012166,61.9712929 204.647759,65.8504167 L204.647759,65.8504167 L204.647759,66.4436944 C204.966616,70.4140917 203.554537,74.3388522 200.77593,77.2139674 C197.906221,79.5870784 194.262147,80.8192707 190.572521,80.6367237 L190.572521,80.6367237 L182.100048,80.6367237 L182.100048,97.6135947 C182.100048,98.2525092 181.73564,98.8001502 181.143478,99.0739707 C179.959154,99.8041587 178.455973,99.8041587 177.271649,99.0739707 C176.725038,98.8001502 176.36063,98.2068724 176.36063,97.6135947 L176.36063,97.6135947 L176.36063,53.8023147 C176.36063,53.2546737 176.588385,52.7526695 176.998344,52.4332122 C177.408302,52.0681182 178.000464,51.8399345 178.592626,51.8855712 L178.592626,51.8855712 Z M344.625772,51.8855712 C345.172383,51.8855712 345.673443,52.1593917 346.037851,52.6157592 C346.402258,53.1177635 346.538911,53.7110412 346.538911,54.304319 C346.584462,54.9432335 346.402258,55.582148 346.037851,56.0841522 C345.718994,56.5861565 345.172383,56.9056137 344.580221,56.859977 L344.580221,56.859977 L334.149058,56.859977 L334.149058,97.6135947 C334.149058,98.2525092 333.830201,98.8001502 333.28359,99.0739707 C332.099266,99.8041587 330.596085,99.8041587 329.411761,99.0739707 C328.910701,98.7545134 328.591844,98.2068724 328.591844,97.6135947 L328.591844,97.6135947 L328.591844,56.859977 L318.024028,56.859977 C317.431866,56.859977 316.885255,56.5861565 316.566398,56.129789 C315.837583,55.0801437 315.837583,53.6654045 316.566398,52.6157592 C316.930806,52.1593917 317.431866,51.8855712 318.024028,51.8855712 L318.024028,51.8855712 Z M397.3282,51.8855712 C398.649177,51.6573875 399.879052,52.5701225 400.197909,53.8023147 L400.197909,53.8023147 L400.223531,53.9734525 C400.240613,54.1445903 400.232072,54.3157281 400.197909,54.486866 L400.197909,54.486866 L400.197909,97.5223212 C400.197909,98.1612357 399.879052,98.7088767 399.332441,98.9826972 C398.102566,99.6672484 396.644936,99.6672484 395.460612,98.9826972 C394.959552,98.6632399 394.640695,98.1155989 394.640695,97.5223212 L394.640695,97.5223212 L394.640695,63.3403954 L384.756143,81.9145527 C384.437286,82.8272877 383.61737,83.4662022 382.615249,83.5118389 C381.65868,83.4662022 380.884314,82.8272877 380.611008,81.9145527 L380.611008,81.9145527 L370.726456,63.0209382 L370.726456,97.5223212 C370.726456,98.1612357 370.407599,98.7088767 369.860988,98.9826972 C369.314377,99.3477912 368.676664,99.5759749 368.038951,99.5759749 C367.355687,99.6216117 366.672423,99.4390647 366.080261,99.0739707 C365.488099,98.8001502 365.169242,98.2068724 365.169242,97.5679579 L365.169242,97.5679579 L365.169242,54.6237762 C364.987039,53.3459472 365.852506,52.113755 367.127932,51.8855712 L367.127932,51.8855712 L368.266706,51.8855712 C369.860988,51.8855712 371.318618,53.02649 372.502942,55.3539642 L372.502942,55.3539642 L382.751902,75.0234034 L393.091963,55.3539642 C394.230737,53.02649 395.688366,51.8855712 397.3282,51.8855712 Z M435.68163,51.9320708 L435.875741,51.9348275 C437.597721,51.9878872 438.611207,52.623696 438.916201,53.8023147 L438.916201,53.8023147 L452.308175,97.1572272 L452.308175,97.3854109 L440.48563,65.1540708 L435.68163,51.9320708 Z M244.368171,59.0961777 C242.682787,57.4532547 240.40524,56.6317932 238.036592,56.7687035 C232.388276,56.7687035 229.564119,59.8720024 229.564119,66.0786004 L229.564119,66.0786004 L229.564119,85.6111294 C229.564119,91.8177274 232.297175,94.9666632 238.036592,94.9666632 C240.359689,95.1035734 242.682787,94.2821119 244.368171,92.6391889 C246.008005,90.7224454 246.827922,88.2124242 246.600167,85.6567662 L246.600167,85.6567662 L246.600167,66.0329637 C246.827922,63.5229424 246.008005,61.0129212 244.368171,59.0961777 Z M435.636534,59.8720024 L428.348384,84.3333004 L442.970234,84.3333004 L435.636534,59.8720024 Z M196.949652,59.1418144 C195.264267,57.5445282 192.94117,56.67743 190.572521,56.8143402 L190.572521,56.8143402 L182.100048,56.8143402 L182.100048,76.3468692 L190.572521,76.3468692 C193.032271,76.4837794 195.40092,75.6166812 197.177406,73.8824847 C198.771689,71.9657412 199.591606,69.4557199 199.409402,66.9456987 L199.409402,66.9456987 L199.181647,66.0786004 C199.409402,63.5685792 198.589485,61.0585579 196.949652,59.1418144 Z" id="Combined-Shape" fill="#000000"></path>
            <path d="M85.0310125,4.24080422 C45.4017019,-0.870511776 9.1431603,27.1960895 4.08700688,66.9000619 C-0.969146532,106.604034 26.9991255,142.930887 66.6284361,147.996567 C106.257747,153.107883 142.516288,125.041281 147.572442,85.3373089 C147.572442,85.2916722 147.572442,85.2460354 147.572442,85.2460354 C152.628595,45.542063 124.614772,9.30648347 85.0310125,4.24080422 Z" id="Path" fill="#FFFFFF"></path>
            <path d="M85.4865218,0.635500973 C43.9440721,-4.74963552 5.95459508,24.6860682 0.625136076,66.3067842 C-4.70432293,107.9275 24.6304771,146.034186 66.1729268,151.373686 C107.715376,156.713186 145.704853,127.323119 151.079863,85.7024029 C156.409322,44.081687 127.074522,5.97500072 85.4865218,0.635500973 C85.5320727,0.635500973 85.5320727,0.635500973 85.4865218,0.635500973 Z M101.110491,48.0064475 C99.6984125,48.0520842 98.3774354,48.5997252 97.3753149,49.6037337 L69.2248392,77.8072452 L63.2121162,71.7831942 C90.9070827,44.081687 95.9632361,43.8078665 101.110491,48.0064475 Z M70.3636125,78.8112537 L98.4229864,50.8815627 C99.9717181,49.37555 102.431468,49.37555 103.9802,50.8815627 C104.754566,51.6573875 105.164524,52.7070327 105.118973,53.756678 C105.073422,54.85196 104.617913,55.8559685 103.797996,56.5861565 L74.1443398,82.7816509 L70.3636125,78.8112537 Z M72.4589553,83.0554714 L65.4896628,84.8353047 C65.35301,84.9265782 65.2163572,84.9265782 65.0797044,84.8353047 C64.9886025,84.6983944 64.9886025,84.5158474 65.0797044,84.3789372 L69.315941,80.1347194 L72.4589553,83.0554714 Z M54.694092,80.1347194 L62.1188938,72.6959292 L67.7216584,78.4461597 L55.0129485,81.1843647 C54.7396429,81.2300014 54.4663373,81.0474544 54.4207864,80.7736339 C54.3752354,80.5910869 54.4207864,80.4541767 54.5574392,80.3172664 L54.694092,80.1347194 Z M31.6908715,118.789047 C31.5086678,118.74341 31.326464,118.6065 31.2809131,118.469589 C31.2353622,118.287042 31.2353622,118.104495 31.2809131,117.967585 L37.2480851,111.943534 L44.9917435,119.656145 L31.6908715,118.789047 Z M46.9959845,110.802615 L46.9959845,110.802615 C46.4038224,111.122073 46.0849659,111.760987 46.2216187,112.399902 L47.4970448,117.876312 C47.5881466,118.241406 47.4059429,118.6065 47.1326373,118.789047 C46.8593317,119.01723 46.4493733,119.01723 46.2216187,118.789047 L38.4779603,110.802615 L62.2555466,86.9345952 L73.7799323,84.4702107 L79.2915951,89.9922574 C69.4525938,98.2068724 58.6114721,105.189295 47.0415355,110.711342 L47.0415355,110.802615 L46.9959845,110.802615 L46.9959845,110.802615 Z M80.4303684,89.0795224 L75.1464603,83.7856594 L104.800117,57.6358017 C105.073422,57.407618 105.346728,57.1337975 105.574483,56.8143402 C104.617913,65.3027757 92.683569,77.3508777 80.4303684,89.0795224 Z M119.103109,31.1664867 L108.899701,41.343482 C108.626395,41.6629392 108.626395,42.1193067 108.899701,42.438764 L116.825563,50.3339217 C112.361571,52.5244857 106.986562,51.6117507 103.524691,48.0520842 L103.570242,48.1433577 C99.1518013,43.534046 99.334005,36.232166 103.934649,31.8054012 C108.125335,27.7893672 114.593567,27.5155467 119.103109,31.1664867 Z M120.196332,32.216132 C124.387017,36.7341702 124.250365,43.7622297 119.831924,48.1433577 C119.285313,48.645362 118.738702,49.1473662 118.100989,49.558097 L110.493983,41.9367597 L120.196332,32.216132 Z M119.239762,38.1945462 C118.829804,38.3770932 118.602049,38.8790975 118.784253,39.2898282 C118.784253,39.335465 118.829804,39.335465 118.829804,39.3811017 C119.285313,40.2938367 119.194211,41.4347555 118.510947,42.2105802 C118.192091,42.5300375 118.14654,43.0776785 118.465396,43.3971357 C118.465396,43.3971357 118.465396,43.3971357 118.510947,43.4427725 C118.693151,43.4884092 118.920906,43.4884092 119.103109,43.4427725 C119.330864,43.4427725 119.60417,43.3058622 119.740822,43.1233152 C120.879596,41.7998495 121.10735,39.9287427 120.287434,38.3770932 C120.059679,38.057636 119.60417,37.9663625 119.239762,38.1945462 Z" id="Shape" fill="#FF6C37"></path>
        </g>
    </g>
</svg>