<?xml version="1.0" encoding="UTF-8"?>
<svg width="1000px" height="407px" viewBox="0 0 1000 407" version="1.1" xmlns="http://www.w3.org/2000/svg" xmlns:xlink="http://www.w3.org/1999/xlink">
    <title>netlify</title>
    <g id="Page-1" stroke="none" stroke-width="1" fill="none" fill-rule="evenodd">
        <g id="netlify" fill-rule="nonzero">
            <polygon id="Path" fill="#05BDBA" points="229.365396 404.860674 229.365396 302.329448 231.500145 300.190122 252.833962 300.190122 254.968711 302.329448 254.968711 404.860674 252.833962 407 231.500145 407"></polygon>
            <polygon id="Path" fill="#05BDBA" points="229.365396 104.663708 229.365396 2.13813352 231.500145 0 252.833962 0 254.968711 2.13813352 254.968711 104.663708 252.833962 106.801861 231.500145 106.801861"></polygon>
            <polygon id="Path" fill="#05BDBA" points="136.627644 330.94636 133.611066 330.94636 118.528176 315.838101 118.528176 312.81684 153.748994 277.560976 169.720549 277.568798 171.863501 279.698347 171.863501 295.690496"></polygon>
            <polygon id="Path" fill="#05BDBA" points="136.612605 76.0530529 133.596027 76.0530529 118.513137 91.1620944 118.513137 94.1823774 153.733955 129.439024 169.70551 129.431593 171.848462 127.300871 171.848462 111.309895"></polygon>
            <polygon id="Path" fill="#05BDBA" points="2.13551066 190.682423 147.20803 190.682423 149.34356 192.820577 149.34356 214.179032 147.20803 216.318359 2.13551066 216.318359 0 214.179032 0 192.820577"></polygon>
            <polygon id="Path" fill="#05BDBA" points="861.319443 190.682423 997.863298 190.682423 1000 192.820577 1000 214.179032 997.863298 216.318359 852.792166 216.318359 850.655464 214.179032 859.182741 192.820577"></polygon>
            <path d="M414.168639,212.616581 L412.03389,214.755907 L345.85472,214.755907 L343.719971,216.893278 C343.719971,221.169975 347.991422,233.99029 365.06746,233.99029 C371.47366,233.99029 377.872048,231.852919 380.00875,227.576222 L382.143499,225.438851 L407.762439,225.438851 L409.897188,227.576222 C407.762439,240.398491 397.092601,259.640696 365.06746,259.640696 C328.778681,259.640696 311.694831,233.99029 311.694831,204.071009 C311.694831,174.152901 328.770869,148.502886 362.930758,148.502886 C397.092601,148.502886 414.168639,174.152901 414.168639,204.071009 L414.168639,212.624403 L414.168639,212.616581 Z M382.143499,191.243068 C382.143499,189.104915 380.00875,174.14547 362.930758,174.14547 C345.85472,174.14547 343.719971,189.104915 343.719971,191.243068 L345.85472,193.381221 L380.00875,193.381221 L382.143499,191.243068 Z" id="Shape" fill="#014847"></path>
            <path d="M473.94161,225.438851 C473.94161,229.713592 476.076359,231.852919 480.34781,231.852919 L499.558597,231.852919 L501.695299,233.99029 L501.695299,255.363998 L499.558597,257.503325 L480.34781,257.503325 C461.135069,257.503325 444.059031,248.94993 444.059031,225.438851 L444.059031,178.414345 L441.922329,176.276192 L426.982992,176.276192 L424.84629,174.138039 L424.84629,152.764134 L426.982992,150.625981 L441.922329,150.625981 L444.059031,148.488024 L444.059031,129.252273 L446.19378,127.11412 L471.81272,127.11412 L473.947469,129.252273 L473.947469,148.488024 L476.084171,150.625981 L499.56641,150.625981 L501.703112,152.764134 L501.703112,174.138039 L499.56641,176.276192 L476.084171,176.276192 L473.947469,178.414345 L473.947469,225.438851 L473.94161,225.438851 Z" id="Path" fill="#014847"></path>
            <polygon id="Path" fill="#014847" points="552.925368 257.503325 527.306427 257.503325 525.169725 255.363998 525.169725 110.023952 527.306427 107.885799 552.925368 107.885799 555.060117 110.023952 555.060117 255.363998"></polygon>
            <path d="M610.561636,133.53601 L584.942696,133.53601 L582.805994,131.397857 L582.805994,110.023952 L584.942696,107.885799 L610.561636,107.885799 L612.696385,110.023952 L612.696385,131.397857 L610.561636,133.53601 Z M610.561636,257.503325 L584.942696,257.503325 L582.805994,255.363998 L582.805994,152.771565 L584.942696,150.633608 L610.561636,150.633608 L612.696385,152.771565 L612.696385,255.363998 L610.561636,257.503325 Z" id="Shape" fill="#014847"></path>
            <path d="M710.892884,110.023952 L710.892884,131.397857 L708.756182,133.53601 L689.545394,133.53601 C685.273943,133.53601 683.137241,135.674163 683.137241,139.950273 L683.137241,148.502886 L685.273943,150.641039 L706.621433,150.641039 L708.756182,152.779192 L708.756182,174.152901 L706.621433,176.291054 L685.273943,176.291054 L683.137241,178.429207 L683.137241,255.37182 L681.002492,257.509191 L655.383552,257.509191 L653.248803,255.37182 L653.248803,178.429207 L651.112101,176.291054 L636.172764,176.291054 L634.036062,174.152901 L634.036062,152.779192 L636.172764,150.641039 L651.112101,150.641039 L653.248803,148.502886 L653.248803,139.950273 C653.248803,116.438412 670.324841,107.885799 689.537582,107.885799 L708.748369,107.885799 L710.885071,110.023952 L710.892884,110.023952 Z" id="Path" fill="#014847"></path>
            <path d="M789.876642,259.640696 C781.33374,281.014404 772.800603,293.836674 742.910212,293.836674 L732.232561,293.836674 L730.097812,291.697348 L730.097812,270.323639 L732.232561,268.186268 L742.910212,268.186268 C753.58005,268.186268 755.714799,266.046942 757.851501,259.632874 L757.851501,257.495503 L723.697471,174.138039 L723.697471,152.764134 L725.834173,150.625981 L745.044961,150.625981 L747.181663,152.764134 L772.800603,225.438851 L774.935352,225.438851 L800.554293,152.764134 L802.689041,150.625981 L821.901782,150.625981 L824.036531,152.764134 L824.036531,174.138039 L789.884454,259.632874 L789.876642,259.640696 Z" id="Path" fill="#014847"></path>
            <path d="M264.556527,257.503325 L262.421778,255.363998 L262.43545,193.433433 C262.43545,182.750294 258.24017,174.466955 245.359411,174.197877 C238.736416,174.025793 231.15835,174.18282 223.06271,174.526794 L221.853736,175.76776 L221.86936,255.363998 L219.732658,257.503325 L194.122116,257.503325 L191.986586,255.363998 L191.986586,151.627788 L194.122116,149.489635 L251.757799,148.966341 C280.632573,148.966341 292.318029,168.830006 292.318029,191.250499 L292.318029,255.363998 L290.18328,257.503325 L264.556527,257.503325 Z" id="Path" fill="#014847"></path>
        </g>
    </g>
</svg>