<?xml version="1.0" encoding="UTF-8"?>
<svg id="Layer_2" xmlns="http://www.w3.org/2000/svg" viewBox="0 0 693.75 150">
  <defs>
    <style>
      .cls-1 {
        fill: #fca326;
      }

      .cls-2 {
        fill: #fc6d26;
      }

      .cls-3 {
        fill: #e24329;
      }

      .cls-4 {
        fill: #171321;
      }
    </style>
  </defs>
  <g id="Layer_1-2" data-name="Layer_1">
    <g id="LOGO">
      <path class="cls-4" d="M280.09,56.51h22.78c-3.8-24.22-24.77-41.09-52.06-41.09-32.29,0-56.52,23.74-56.52,63.5s23.14,63.27,57.18,63.27c30.55,0,52.42-19.65,52.42-51.46v-14.82h-50.07v17.47h28.44c-.36,17.6-12.11,28.74-30.67,28.74-20.66,0-34.82-15.48-34.82-43.44s14.4-43.2,34.34-43.2c14.88,0,25.06,7.95,28.98,21.03Z"/>
      <path class="cls-4" d="M318.95,140.5h21.81V48h-21.81v92.5ZM329.95,33.3c6.93,0,12.59-5.31,12.59-11.81s-5.66-11.87-12.59-11.87-12.65,5.3-12.65,11.87,5.62,11.81,12.61,11.81h.04Z"/>
      <path class="cls-4" d="M406.07,48h-18.26v-22.22h-21.81v22.22h-13.13v16.87h13.13v51.46c-.12,17.41,12.54,26,28.92,25.49,4.36-.09,8.69-.82,12.84-2.17l-3.68-17.06c-2.08.54-4.23.83-6.38.85-5.49,0-9.89-1.93-9.89-10.73v-47.89h18.26v-16.82Z"/>
      <path class="cls-4" d="M422.95,140.5h76.7v-18.74h-54.34V17.1h-22.36v123.4Z"/>
      <path class="cls-4" d="M541.43,142.37c14.52,0,23.19-6.81,27.17-14.58h.72v12.71h21v-61.94c0-24.46-19.94-31.81-37.6-31.81-19.46,0-34.4,8.67-39.22,25.54l20.37,2.9c2.16-6.33,8.31-11.75,19-11.75,10.13,0,15.67,5.18,15.67,14.28v.36c0,6.26-6.57,6.57-22.9,8.31-17.95,1.93-35.12,7.29-35.12,28.14-.06,18.2,13.25,27.84,30.91,27.84ZM548.6,126.37c-9.1,0-15.61-4.16-15.61-12.17s7.29-11.87,17-13.26c5.73-.78,17.18-2.23,20-4.51v10.9c.06,10.27-8.26,19.01-21.39,19.01v.03Z"/>
      <path class="cls-4" d="M606.38,140.5h21.45v-14.58h1.26c3.44,6.75,10.61,16.21,26.52,16.21,21.81,0,38.14-17.3,38.14-47.78s-16.81-47.6-38.2-47.6c-16.33,0-23.14,9.82-26.46,16.51h-.92V17.1h-21.79v123.4ZM627.77,94.23c0-18,7.71-29.59,21.75-29.59s22,12.35,22,29.59-7.59,30-22,30-21.75-12.05-21.75-30h0Z"/>
      <path class="cls-3" d="M153.17,59.37l-.21-.56L131.76,3.51c-.43-1.09-1.19-2.01-2.18-2.63-2.6-1.67-6.07-.91-7.74,1.7-.3.46-.52.97-.67,1.5l-14.31,43.81h-57.95L34.6,4.08c-.85-2.98-3.95-4.71-6.93-3.86-.52.15-1.02.37-1.48.66-.99.62-1.75,1.54-2.18,2.63L2.82,58.82l-.22.55c-6.27,16.38-.94,34.93,13.06,45.49l.08.06.18.14,32.25,24.17,16,12.09,9.72,7.35c2.34,1.77,5.58,1.77,7.92,0l9.72-7.35,16-12.09,32.48-24.31.09-.07c14-10.56,19.33-29.1,13.07-45.48Z"/>
      <path class="cls-2" d="M153.17,59.37l-.21-.56c-10.33,2.12-20.06,6.5-28.5,12.82l-46.55,35.2,29.64,22.4,32.48-24.31.09-.07c13.99-10.56,19.31-29.11,13.05-45.48Z"/>
      <path class="cls-1" d="M48.17,129.23l16,12.09,9.72,7.35c2.34,1.77,5.58,1.77,7.92,0l9.72-7.35,16-12.09-29.64-22.4-29.72,22.4Z"/>
      <path class="cls-2" d="M31.31,71.63c-8.44-6.32-18.16-10.69-28.49-12.81l-.22.55c-6.27,16.38-.94,34.93,13.06,45.49l.08.06.18.14,32.25,24.17,29.66-22.4-46.52-35.2Z"/>
    </g>
  </g>
</svg>