<?xml version="1.0" encoding="UTF-8"?>
<svg width="1000px" height="258px" viewBox="0 0 1000 258" version="1.1" xmlns="http://www.w3.org/2000/svg" xmlns:xlink="http://www.w3.org/1999/xlink">
    <title>docker</title>
    <g id="Page-1" stroke="none" stroke-width="1" fill="none" fill-rule="evenodd">
        <g id="docker" fill="#2497ED" fill-rule="nonzero">
            <path d="M470.195059,75.0846508 C464.925112,74.9110545 460.512619,79.0441546 460.338614,84.3169517 C460.331573,84.5267767 460.331573,84.7366017 460.338614,84.9464267 L460.338614,132.365875 C437.471499,113.991342 404.046889,117.643907 385.68279,140.522886 C378.107021,149.961489 373.979675,161.704646 373.983196,173.809587 C373.482302,203.14081 396.840755,227.324528 426.156627,227.826196 C455.471997,228.32736 479.642643,204.956275 480.14404,175.625052 C480.154601,175.019729 480.154601,174.41491 480.14404,173.81009 L480.14404,84.9932222 C480.222996,82.3314132 479.171923,79.7606793 477.250824,77.9180433 C475.369454,76.07742 472.825758,75.0725745 470.195059,75.1314463 M457.723505,186.597843 C454.333419,194.575723 448.006867,200.944944 440.053416,204.386175 C431.720774,207.915965 422.313926,207.915965 413.980782,204.386175 C406.043926,200.977147 399.741514,194.615474 396.40373,186.644136 C392.91608,178.400579 392.91608,169.095317 396.40373,160.852263 C399.748555,152.907594 406.052979,146.578124 413.980782,143.203312 C422.313423,139.673522 431.720271,139.673522 440.053416,143.203312 C448.006364,146.644543 454.333419,153.012758 457.723505,160.991643 C461.210149,169.202997 461.210149,178.479578 457.723505,186.690931 M581.028902,136.205119 C560.287569,115.471187 526.673866,115.486282 505.95114,136.238832 C496.009201,146.194199 490.423429,159.689923 490.4184,173.762792 C489.917506,203.094518 513.275959,227.278235 542.591832,227.779903 C571.907201,228.281068 596.077847,204.909479 596.579244,175.578256 C596.589805,174.973437 596.589805,174.368617 596.579244,173.763295 C596.58377,166.778185 595.249059,159.856978 592.649037,153.374039 C589.970562,146.926826 586.018228,141.087451 581.028902,136.205119 M574.174299,186.551048 C572.479005,190.487406 570.065561,194.073552 567.056677,197.125323 C564.021139,200.176089 560.435423,202.62455 556.488117,204.339379 C548.161008,207.870176 538.758686,207.870176 530.431576,204.339379 C522.485668,200.937899 516.175713,194.574717 512.838934,186.597843 C509.351284,178.354286 509.351284,169.049025 512.838934,160.805468 C516.193314,152.872874 522.503773,146.559506 530.431576,143.203312 C538.758686,139.672516 548.161008,139.672516 556.488117,143.203312 C560.435423,144.918141 564.021139,147.3661 567.056677,150.417871 C570.065561,153.468636 572.479005,157.054783 574.174299,160.991643 C577.640827,169.207022 577.640827,178.475552 574.174299,186.690931 M800.498386,130.508144 C800.504924,129.202398 800.236372,127.910238 799.70983,126.715192 C799.173733,125.56845 798.446029,124.521338 797.558903,123.618637 C796.682842,122.704867 795.629758,121.977775 794.464526,121.482145 C793.233413,120.973936 791.913286,120.716309 790.580586,120.723354 C788.698714,120.710774 786.853553,121.248671 785.272921,122.271631 L728.595467,159.164103 L728.595467,85.0858069 C728.645758,82.4340614 727.598709,79.8794292 725.702252,78.0262265 C723.878716,76.1091202 721.337032,75.042887 718.692754,75.0834684 C713.232709,75.0504347 708.777972,79.4517283 708.743075,84.9152297 L708.743075,216.863467 C708.712091,219.498105 709.757632,222.031604 711.637493,223.876755 C713.474607,225.800403 716.03339,226.867139 718.692754,226.818331 C721.328482,226.861101 723.860612,225.793359 725.671072,223.876755 C727.550933,222.031604 728.596473,219.498105 728.56479,216.863467 L728.56479,182.680607 L740.123068,175.094703 L783.927649,224.310494 C785.7019,226.017776 788.089192,226.938591 790.549909,226.864623 C791.882609,226.879719 793.204244,226.621589 794.433848,226.105832 C795.601595,225.621775 796.655685,224.899715 797.528226,223.984939 C798.429433,223.058589 799.158143,221.97877 799.67865,220.7958 C800.205695,219.600753 800.474247,218.308593 800.468212,217.002848 C800.474247,214.430604 799.493581,211.953461 797.729388,210.082647 L757.004601,164.179776 L796.70849,138.387903 C799.272805,136.615209 800.713127,133.620296 800.498386,130.508144 M636.050791,150.201002 C639.110971,147.173886 642.718312,144.757627 646.681208,143.07953 C650.784917,141.332498 655.202942,140.447912 659.662708,140.478606 C663.61102,140.442377 667.531168,141.145819 671.220986,142.553207 C674.918851,144.041103 678.343637,146.133818 681.355539,148.745812 C683.186618,150.205027 685.467294,150.982436 687.807817,150.944195 C690.475228,151.056403 693.067706,150.04552 694.956619,148.157598 C696.815861,146.261625 697.826701,143.691394 697.756797,141.036127 C697.789486,138.153423 696.535742,135.406577 694.337039,133.542807 C684.839668,125.037598 672.483782,120.432014 659.73915,120.646871 C630.419254,120.646871 606.651266,144.428046 606.651266,173.763295 C606.578012,203.056277 630.25229,226.862108 659.529438,226.936238 C672.309274,226.967775 684.670692,222.379299 694.337542,214.014979 C696.331563,212.116491 697.451533,209.476822 697.43192,206.723434 C697.605925,201.450637 693.475059,197.035758 688.205112,196.861658 C687.9954,196.854614 687.785186,196.854614 687.575474,196.861658 C685.319943,196.871722 683.125263,197.597807 681.308768,198.936259 C678.345649,201.547247 674.947013,203.617823 671.266751,205.050872 C667.57291,206.440648 663.65427,207.133524 659.708473,207.094779 C655.249209,207.125976 650.830681,206.240887 646.726972,204.493855 C642.767597,202.810223 639.160758,200.394468 636.097058,197.372887 C623.090915,184.437199 623.027549,163.40136 635.955741,150.388184 L636.097058,150.247294 M997.393447,127.288311 C995.475868,125.487942 993.1967,124.11628 990.708827,123.262891 C987.86389,122.240937 984.90932,121.555106 981.904962,121.219487 C978.932791,120.85418 975.941006,120.668004 972.946203,120.661722 C966.869093,120.643349 960.836238,121.690964 955.121722,123.758521 C949.520863,125.801924 944.293663,128.751551 939.648325,132.49016 L939.648325,130.508647 C939.431572,125.032566 934.818923,120.76864 929.345802,120.985006 C924.176436,121.189296 920.031489,125.335982 919.827309,130.508647 L919.827309,217.003351 C920.043558,222.479935 924.656208,226.743358 930.129329,226.527495 C935.299198,226.323204 939.443642,222.176519 939.648325,217.003351 L939.648325,173.763295 C939.618653,169.296588 940.502761,164.870639 942.247341,160.759175 C943.915981,156.816276 946.327413,153.23164 949.349875,150.201002 C952.390945,147.180427 955.977165,144.763666 959.917932,143.07953 C964.027676,141.332498 968.450731,140.447912 972.915526,140.478606 C977.353667,140.434829 981.760126,141.238907 985.897027,142.847062 C987.204078,143.476537 988.626295,143.829768 990.075166,143.884614 C991.407363,143.896691 992.728495,143.638561 993.959105,143.125823 C995.125343,142.632709 996.178427,141.905617 997.053483,140.989834 C997.937591,140.087637 998.659763,139.040525 999.18882,137.893783 C999.725923,136.669049 1000,135.345189 999.993469,134.007743 C1000.08952,131.516008 999.122436,129.101259 997.332596,127.3658 M905.282275,153.452032 C896.851064,133.733511 877.528427,120.901479 856.093085,120.786249 C826.782241,120.777697 803.01392,144.544783 803.005369,173.871981 L803.005369,173.887076 C802.999838,203.231382 826.770674,227.024634 856.098617,227.029667 C868.830676,227.032182 881.140798,222.457292 890.784011,214.138761 C890.923316,213.999884 891.140068,213.813708 891.171249,213.767416 C892.035743,213.066993 892.79161,212.243291 893.41471,211.32147 C896.60112,206.729976 895.464553,200.423652 890.877552,197.233506 C887.032336,194.734224 881.97713,195.18809 878.637837,198.332949 C878.31296,198.627308 877.384596,199.494283 877.230204,199.618065 L877.090899,199.741846 C874.266079,202.145525 871.039437,204.031938 867.559331,205.31504 C863.878062,206.613238 859.99714,207.252777 856.09409,207.203969 C852.496807,207.22158 848.920646,206.646448 845.50994,205.500713 C842.189255,204.3902 839.058668,202.777013 836.226304,200.717004 C833.403998,198.651461 830.923668,196.154191 828.876843,193.316773 C826.785762,190.41998 825.185516,187.198134 824.141987,183.780553 L899.202147,183.780553 C901.835863,183.840431 904.381571,182.829044 906.257409,180.978357 C908.188063,179.1483 909.24165,176.57807 909.151127,173.918777 C909.211476,166.918068 907.891852,159.973715 905.267188,153.483732 M824.125894,164.056498 C825.117624,160.635897 826.687695,157.410529 828.767209,154.520277 C830.826608,151.678331 833.323031,149.180558 836.163441,147.120046 C839.036037,145.06205 842.202331,143.449366 845.555705,142.336337 C848.948809,141.205697 852.501836,140.630566 856.077494,140.63306 C859.633037,140.629056 863.165948,141.204691 866.537427,142.336337 C873.229591,144.561388 879.060277,148.820786 883.217295,154.520277 C885.340059,157.407007 886.961426,160.631368 888.014008,164.056498 L824.125894,164.056498 Z M963.537846,212.513498 C959.74443,212.573376 956.717442,215.699115 956.777287,219.495086 C956.837133,223.291057 959.961685,226.319179 963.755102,226.259301 C967.524379,226.199926 970.541309,223.112429 970.516667,219.34061 C970.47392,215.527531 967.34987,212.471231 963.538852,212.513498 L963.537846,212.513498 M963.537846,224.790023 C960.532986,224.926887 957.986272,222.600194 957.849482,219.594212 C957.713195,216.587223 960.038127,214.039132 963.042987,213.902268 C966.047848,213.765907 968.594562,216.092096 968.731352,219.098582 C968.735878,219.194186 968.73789,219.290796 968.736884,219.386903 C968.839477,222.266587 966.589477,224.683852 963.711852,224.7865 C963.654018,224.789016 963.596183,224.790023 963.537846,224.790023" id="Shape"></path>
            <path d="M965.116467,219.55748 L965.116467,219.464392 C965.87686,219.317464 966.449167,218.687486 966.524602,217.916618 C966.553268,217.325384 966.307347,216.753775 965.859258,216.368341 C965.13256,215.98341 964.312321,215.811826 963.492082,215.873214 C962.615518,215.861138 961.739959,215.933595 960.876973,216.090084 L960.876973,222.902101 L962.424414,222.902101 L962.424414,220.161796 L963.167205,220.161796 C964.049301,220.161796 964.451626,220.486849 964.590428,221.24564 C964.682962,221.820772 964.859985,222.378796 965.11697,222.902101 L966.834392,222.902101 C966.567852,222.367726 966.395356,221.791588 966.32344,221.198845 C966.254039,220.457664 965.776279,219.818126 965.085287,219.542384 M963.212969,219.046755 L962.454588,219.046755 L962.454588,217.080337 C962.747782,217.045618 963.043993,217.045618 963.336684,217.080337 C964.327408,217.080337 964.79159,217.498477 964.79159,218.117889 C964.79159,218.7373 964.079979,219.124244 963.244653,219.124244 M355.802658,97.3935287 C354.828027,96.6191385 345.729963,89.7457338 326.543111,89.7457338 C321.47684,89.7678736 316.421131,90.202619 311.425267,91.0459445 C307.711813,65.5791245 286.668234,53.1627163 285.724783,52.6056988 L280.572516,49.6329261 L277.183938,54.525321 C272.940421,61.0973224 269.842523,68.3420722 268.024017,75.9516256 C264.588669,90.488927 266.677739,104.143152 274.05838,115.816367 C265.145888,120.785748 250.848787,122.008972 247.955571,122.117156 L11.2484965,122.117156 C5.06577589,122.12571 0.0487902616,127.124778 0.0150955907,133.310339 C-0.260999548,154.05836 3.25229852,174.6826 10.3819903,194.167646 C18.5361007,215.563257 30.667188,231.323279 46.4498724,240.968186 C64.1355514,251.80512 92.8690592,257.998891 125.439736,257.998891 C140.153746,258.044018 154.840097,256.711604 169.306174,254.019101 C189.415355,250.324772 208.765652,243.292363 226.556438,233.211705 C241.215631,224.718068 254.408855,213.912834 265.626163,201.211628 C284.37951,179.970996 295.551557,156.315112 303.860059,135.291852 L307.171189,135.291852 C327.703817,135.291852 340.330266,127.070938 347.292993,120.181935 C351.920227,115.788189 355.532597,110.43589 357.87664,104.499401 L359.346633,100.195724 L355.802658,97.3935287 Z" id="Shape"></path>
            <path d="M33.1892593,115.18186 L64.9090201,115.18186 C66.4388588,115.18186 67.6785651,113.941024 67.6785651,112.410861 L67.6785651,84.1413427 C67.6870703,82.6106767 66.4539459,81.3632997 64.9246102,81.3547457 L33.1892593,81.3547457 C31.6594206,81.3547457 30.4197585,82.5955814 30.4197585,84.1257442 L30.4197585,112.410358 C30.4197585,113.941024 31.6594206,115.18186 33.1892593,115.18186 L33.1892593,115.18186 Z M76.9008026,115.18186 L108.620563,115.18186 C110.150402,115.18186 111.390108,113.941024 111.390108,112.410861 L111.390108,84.1413427 C111.398614,82.6106767 110.165489,81.3632997 108.635651,81.3547457 L76.9002997,81.3547457 C75.3619117,81.3547457 74.1152089,82.6021227 74.1152089,84.1413427 L74.1152089,112.410358 C74.1242612,113.94354 75.3684494,115.18186 76.9008026,115.18186 M121.277187,115.18186 L152.996948,115.18186 C154.526787,115.18186 155.766493,113.941024 155.766493,112.410861 L155.766493,84.1413427 C155.774998,82.6106767 154.541874,81.3632997 153.012035,81.3547457 L121.276684,81.3547457 C119.746846,81.3547457 118.507183,82.5955814 118.507183,84.1257442 L118.507183,112.410358 C118.507686,113.941024 119.747851,115.18186 121.277187,115.18186 L121.277187,115.18186 Z M165.128035,115.18186 L196.847796,115.18186 C198.380149,115.18186 199.624338,113.944043 199.632887,112.410861 L199.632887,84.1413427 C199.632887,82.6021227 198.386184,81.3547457 196.847796,81.3547457 L165.128035,81.3547457 C163.598197,81.3547457 162.358535,82.5955814 162.358535,84.1257442 L162.358535,112.410358 C162.358535,113.941024 163.5987,115.18186 165.128035,115.18186 Z M76.9008026,74.5120348 L108.620563,74.5120348 C110.152414,74.5034807 111.390064,73.2581164 111.390064,71.7254377 L111.390064,43.4564222 C111.390064,41.9257562 110.149899,40.6854237 108.620563,40.6854237 L76.9008026,40.6854237 C75.3689524,40.6854237 74.1242612,41.9232403 74.1157118,43.4564222 L74.1157118,71.7254377 C74.1242612,73.2611355 75.3659349,74.5034807 76.9008026,74.5120348 M121.277187,74.5120348 L152.996948,74.5120348 C154.528798,74.5034807 155.766449,73.2581164 155.766449,71.7254377 L155.766449,43.4564222 C155.766449,41.9257562 154.526284,40.6854237 152.996948,40.6854237 L121.277187,40.6854237 C119.747348,40.6854237 118.507686,41.9262594 118.507686,43.4564222 L118.507686,71.7254377 C118.507686,73.2581164 119.745337,74.5034807 121.277187,74.5120348 M165.128035,74.5120348 L196.847796,74.5120348 C198.382664,74.5034807 199.624338,73.2611355 199.632887,71.7254377 L199.632887,43.4564222 C199.624338,41.9232403 198.380149,40.6854237 196.847796,40.6854237 L165.128035,40.6854237 C163.598197,40.6854237 162.358535,41.9262594 162.358535,43.4564222 L162.358535,71.7254377 C162.358535,73.2581164 163.596185,74.5034807 165.128035,74.5120348 M165.128035,33.8271143 L196.847796,33.8271143 C198.380149,33.8271143 199.624338,32.5887944 199.632887,31.0561157 L199.632887,2.77099853 C199.624338,1.23781667 198.380149,0 196.847796,0 L165.128035,0 C163.598197,0 162.358535,1.24033255 162.358535,2.77099853 L162.358535,31.0556125 C162.358535,32.5862785 163.5987,33.8271143 165.128035,33.8271143 M209.365618,115.18186 L241.085379,115.18186 C242.617732,115.18186 243.86192,113.944043 243.87047,112.410861 L243.87047,84.1413427 C243.87047,82.6021227 242.623767,81.3547457 241.085379,81.3547457 L209.365618,81.3547457 C207.836282,81.3547457 206.596117,82.5955814 206.596117,84.1257442 L206.596117,112.410358 C206.596117,113.941024 207.836282,115.18186 209.365618,115.18186" id="Shape"></path>
        </g>
    </g>
</svg>