<svg width="19219" height="3379" viewBox="0 0 19219 3379" fill="none" xmlns="http://www.w3.org/2000/svg">
<path d="M2773.34 990.299C2729.48 826.666 2660.11 679.957 2497.72 603.508C2293.72 502.777 2090.55 534.578 1893.6 532.73C1358.49 527.71 823.249 537.804 288.077 535.999C118.23 535.426 -4.64618 408.866 0.134828 261.011C5.05255 108.918 133.573 -9.38077 314.396 0.586573C954.286 35.8557 1594.47 16.9679 2234.5 21.9258C2309.9 22.5092 2383.87 26.1085 2458.18 43.4097C3185.59 212.758 3552.15 1073.04 3081.43 1728.99C2862.65 2033.86 2551.3 2157.85 2193.26 2178.54C2098.1 2184.04 2002.34 2181.68 1906.92 2179.33L1899.31 2179.14C1735.3 2175.1 1601.44 2048.44 1607.79 1906.46C1614.07 1766.23 1735.98 1658.75 1899.18 1665.59C2050.65 1671.94 2199.65 1649.45 2348.83 1636.54C2614.07 1613.58 2844.24 1254.81 2773.34 990.299Z" fill="white"/>
<path d="M332.174 786.016C516.812 781 701.687 785.099 886.458 785.18C1203.21 785.21 1497.35 783.547 1791.46 785.814C1993.95 787.374 2119.87 921.159 2111.92 1119.47C2106.14 1263.65 1985.91 1388.26 1842.04 1392.86C1721.48 1396.71 1600.52 1398.64 1480.13 1392.85C1389.33 1388.48 1363.17 1426.25 1363.97 1514.64C1367.26 1876.75 1365.55 2238.9 1365.05 2601.04C1364.77 2804.67 1241.08 2942.37 1060.98 2941.17C907.502 2940.15 771.7 2786.8 770.406 2603.6C767.849 2241.48 766.83 1879.29 771.204 1517.21C772.374 1420.31 739.24 1387.18 647.012 1392.6C545.536 1398.57 443.46 1394.15 341.648 1393.89C153.591 1393.41 27.5056 1288.27 23.0119 1128.5C17.1205 919.01 128.434 791.551 332.174 786.016Z" fill="white"/>
<path d="M19218.5 994.498L18205.7 3376.11H17673.2L18043.6 2554.26L17386.7 994.498H17939.5L18312.8 2004.44L18683.2 994.498H19218.5Z" fill="white"/>
<path d="M15506.6 1798.98C15506.6 1633.07 15537.5 1487.41 15599.2 1362.01C15662.9 1236.61 15748.7 1140.15 15856.7 1072.63C15964.8 1005.11 16085.4 971.348 16218.5 971.348C16332.3 971.348 16431.7 994.498 16516.5 1040.8C16603.4 1087.1 16669.9 1147.87 16716.2 1223.11V994.498H17211.1V2609.25H16716.2V2380.63C16668 2455.87 16600.5 2516.64 16513.6 2562.94C16428.8 2609.25 16329.4 2632.4 16215.6 2632.4C16084.4 2632.4 15964.8 2598.64 15856.7 2531.11C15748.7 2461.66 15662.9 2364.24 15599.2 2238.84C15537.5 2111.51 15506.6 1964.89 15506.6 1798.98ZM16716.2 1801.87C16716.2 1678.4 16681.5 1580.98 16612 1509.6C16544.5 1438.22 16461.6 1402.53 16363.2 1402.53C16264.8 1402.53 16180.9 1438.22 16111.4 1509.6C16043.9 1579.05 16010.1 1675.51 16010.1 1798.98C16010.1 1922.45 16043.9 2020.84 16111.4 2094.15C16180.9 2165.53 16264.8 2201.22 16363.2 2201.22C16461.6 2201.22 16544.5 2165.53 16612 2094.15C16681.5 2022.77 16716.2 1925.34 16716.2 1801.87Z" fill="white"/>
<path d="M14135.8 1223.11C14184 1147.87 14250.6 1087.1 14335.4 1040.8C14420.3 994.498 14519.7 971.348 14633.5 971.348C14766.6 971.348 14887.2 1005.11 14995.2 1072.63C15103.3 1140.15 15188.1 1236.61 15249.9 1362.01C15313.5 1487.41 15345.4 1633.07 15345.4 1798.98C15345.4 1964.89 15313.5 2111.51 15249.9 2238.84C15188.1 2364.24 15103.3 2461.66 14995.2 2531.11C14887.2 2598.64 14766.6 2632.4 14633.5 2632.4C14521.6 2632.4 14422.3 2609.25 14335.4 2562.94C14250.6 2516.64 14184 2456.84 14135.8 2383.53V3379H13640.9V994.498H14135.8V1223.11ZM14841.9 1798.98C14841.9 1675.51 14807.1 1579.05 14737.7 1509.6C14670.2 1438.22 14586.2 1402.53 14485.9 1402.53C14387.5 1402.53 14303.6 1438.22 14234.2 1509.6C14166.6 1580.98 14132.9 1678.4 14132.9 1801.87C14132.9 1925.34 14166.6 2022.77 14234.2 2094.15C14303.6 2165.53 14387.5 2201.22 14485.9 2201.22C14584.3 2201.22 14668.2 2165.53 14737.7 2094.15C14807.1 2020.84 14841.9 1922.45 14841.9 1798.98Z" fill="white"/>
<path d="M12533.4 2632.4C12375.2 2632.4 12232.5 2598.64 12105.1 2531.11C11979.7 2463.59 11880.4 2367.13 11807.1 2241.73C11735.7 2116.33 11700 1969.71 11700 1801.87C11700 1635.96 11736.6 1490.3 11810 1364.91C11883.3 1237.58 11983.6 1140.15 12110.9 1072.63C12238.2 1005.11 12381 971.348 12539.2 971.348C12697.4 971.348 12840.2 1005.11 12967.5 1072.63C13094.8 1140.15 13195.1 1237.58 13268.4 1364.91C13341.7 1490.3 13378.4 1635.96 13378.4 1801.87C13378.4 1967.78 13340.8 2114.4 13265.5 2241.73C13192.2 2367.13 13090.9 2463.59 12961.7 2531.11C12834.4 2598.64 12691.6 2632.4 12533.4 2632.4ZM12533.4 2204.11C12627.9 2204.11 12708 2169.39 12773.6 2099.93C12841.1 2030.48 12874.9 1931.13 12874.9 1801.87C12874.9 1672.62 12842.1 1573.26 12776.5 1503.81C12712.8 1434.36 12633.7 1399.63 12539.2 1399.63C12442.7 1399.63 12362.7 1434.36 12299 1503.81C12235.3 1571.33 12203.5 1670.69 12203.5 1801.87C12203.5 1931.13 12234.4 2030.48 12296.1 2099.93C12359.8 2169.39 12438.9 2204.11 12533.4 2204.11Z" fill="white"/>
<path d="M11522.7 2189.64V2609.25H11271C11091.6 2609.25 10951.7 2565.84 10851.4 2479.02C10751.1 2390.28 10700.9 2246.55 10700.9 2047.85V1405.42H10504.1V994.498H10700.9V600.939H11195.7V994.498H11519.9V1405.42H11195.7V2053.63C11195.7 2101.86 11207.3 2136.59 11230.5 2157.81C11253.6 2179.03 11292.2 2189.64 11346.2 2189.64H11522.7Z" fill="white"/>
<path d="M9666.02 2632.4C9525.19 2632.4 9399.79 2608.28 9289.83 2560.05C9179.86 2511.82 9093.05 2446.23 9029.38 2363.27C8965.72 2278.39 8930.03 2183.86 8922.31 2079.68H9411.37C9417.16 2135.63 9443.2 2180.96 9489.5 2215.69C9535.8 2250.41 9592.71 2267.78 9660.24 2267.78C9721.97 2267.78 9769.24 2256.2 9802.03 2233.05C9836.76 2207.97 9854.12 2176.14 9854.12 2137.55C9854.12 2091.25 9830.01 2057.49 9781.78 2036.27C9733.55 2013.12 9655.41 1988.04 9547.38 1961.03C9431.62 1934.02 9335.16 1906.05 9258 1877.11C9180.83 1846.24 9114.27 1798.98 9058.32 1735.31C9002.38 1669.72 8974.4 1581.94 8974.4 1471.98C8974.4 1379.38 8999.48 1295.45 9049.64 1220.22C9101.73 1143.05 9176.97 1082.28 9275.36 1037.91C9375.68 993.534 9494.32 971.348 9631.3 971.348C9833.86 971.348 9993.02 1021.51 10108.8 1121.83C10226.5 1222.14 10294 1355.26 10311.3 1521.17H9854.12C9846.4 1465.22 9821.32 1420.85 9778.88 1388.06C9738.37 1355.26 9684.35 1338.86 9616.83 1338.86C9558.95 1338.86 9514.58 1350.44 9483.71 1373.59C9452.85 1394.81 9437.41 1424.71 9437.41 1463.3C9437.41 1509.6 9461.53 1544.32 9509.76 1567.47C9559.92 1590.62 9637.09 1613.77 9741.26 1636.92C9860.87 1667.79 9958.3 1698.66 10033.5 1729.53C10108.8 1758.46 10174.4 1806.7 10230.3 1874.22C10288.2 1939.81 10318.1 2028.55 10320 2140.45C10320 2234.98 10293 2319.86 10239 2395.1C10186.9 2468.41 10110.7 2526.29 10010.4 2568.73C9912 2611.18 9797.21 2632.4 9666.02 2632.4Z" fill="white"/>
<path d="M8653.69 994.498V2609.25H8158.84V2389.32C8108.69 2460.7 8040.2 2518.57 7953.38 2562.94C7868.5 2605.39 7773.97 2626.61 7669.79 2626.61C7546.32 2626.61 7437.32 2599.6 7342.79 2545.58C7248.26 2489.64 7174.95 2409.57 7122.86 2305.4C7070.77 2201.22 7044.73 2078.71 7044.73 1937.88V994.498H7536.67V1871.32C7536.67 1979.36 7564.65 2063.28 7620.6 2123.09C7676.54 2182.89 7751.78 2212.79 7846.31 2212.79C7942.77 2212.79 8018.98 2182.89 8074.92 2123.09C8130.87 2063.28 8158.84 1979.36 8158.84 1871.32V994.498H8653.69Z" fill="white"/>
<path d="M6316.25 1263.62C6374.13 1174.88 6446.48 1105.43 6533.29 1055.27C6620.1 1003.18 6716.57 977.135 6822.67 977.135V1500.92H6686.66C6563.19 1500.92 6470.59 1527.92 6408.86 1581.94C6347.12 1634.03 6316.25 1726.63 6316.25 1859.75V2609.25H5821.41V994.498H6316.25V1263.62Z" fill="white"/>
<path d="M5573.06 577.789V974.241H5034.82V2609.25H4539.97V974.241H4001.72V577.789H5573.06Z" fill="white"/>
</svg>
